# xmcd CD database file
#
# Track frame offsets:
#	150
#	32111
#	65719
#	97688
#	134252
#	176015
#	186892
#	214205
#	225997
#	265354
#	274239
#
# Disc length: 4134 seconds
#
# Revision: 0
# Processed by: cddbd v1.5.2PL0 Copyright (c) Steve Scherf et al.
# Submitted via: CDex 1.70beta2
#
DISCID=9e10240b
DTITLE=Karl Seglem - Som Spor
DYEAR=2014
DGENRE=Jazz
TTITLE0=Som spor
TTITLE1=Snøvabb
TTITLE2=Endelaus slette
TTITLE3=Gå mot nord
TTITLE4=Springar frå fjord
TTITLE5=Trommer frå Voss
TTITLE6=Solstrek
TTITLE7=Førljom
TTITLE8=Ljom
TTITLE9=Som spor tema
TTITLE10=Bregne
EXTD=YEAR: 2014
EXTT0=
EXTT1=
EXTT2=
EXTT3=
EXTT4=
EXTT5=
EXTT6=
EXTT7=
EXTT8=
EXTT9=
EXTT10=
PLAYORDER=
